<svg width="1284" height="346" viewBox="0 0 1284 346" fill="none" xmlns="http://www.w3.org/2000/svg">
<path d="M304.731 345.044H40.9074C18.7074 345.044 0.710449 327.047 0.710449 304.846V41.0229C0.710449 18.8219 18.7074 0.824951 40.9074 0.824951H304.731C326.931 0.824951 344.929 18.8219 344.929 41.0229V304.846C344.929 327.047 326.931 345.044 304.731 345.044Z" fill="#3664AF"/>
<path d="M245.318 86.7679V121.147C245.318 139.896 181.993 155.147 103.276 155.518C101.641 155.526 100.322 154.199 100.322 152.572V55.3509C100.322 53.7709 101.554 52.4759 103.118 52.4049C103.174 52.3969 103.221 52.3969 103.276 52.3969C113.298 52.4439 123.076 52.7359 132.506 53.2419C133.683 53.3049 134.852 53.3679 136.012 53.4389C197.931 57.1589 243.975 70.3169 245.286 86.0729C245.31 86.3019 245.318 86.5389 245.318 86.7679Z" fill="white"/>
<path d="M245.321 155.524V189.901C245.321 208.663 181.925 223.918 103.143 224.275C101.585 224.282 100.319 223.015 100.319 221.457V175.69C100.319 174.137 101.576 172.88 103.13 172.874C143.378 172.701 181.436 168.826 210.567 161.919C223.883 158.761 235.083 155.024 243.953 150.779C244.854 152.33 245.321 153.914 245.321 155.524Z" fill="white"/>
<path d="M245.321 224.281V258.658C245.321 277.42 181.925 292.675 103.143 293.032C101.585 293.039 100.319 291.773 100.319 290.214V244.447C100.319 242.894 101.576 241.638 103.13 241.631C143.378 241.458 181.436 237.583 210.567 230.676C223.883 227.518 235.083 223.781 243.953 219.536C244.854 221.087 245.321 222.671 245.321 224.281Z" fill="white"/>
<path d="M542.65 227.14C550.975 223.034 557.211 216.536 561.355 207.645C565.497 198.755 567.571 187.115 567.571 172.723C567.571 158.483 565.497 146.899 561.355 137.97C557.211 129.042 551.014 122.487 542.764 118.306C534.513 114.124 524.02 112.033 511.289 112.033C504.884 112.033 497.764 112.674 489.928 113.955V232.282C495.73 232.96 502.66 233.299 510.723 233.299C523.681 233.299 534.324 231.247 542.65 227.14ZM459.754 255.451V92.5936C467.286 91.0116 475.423 89.7506 484.164 88.8086C492.904 87.8666 501.343 87.3956 509.48 87.3956C539.09 87.3956 561.335 94.4026 576.216 108.417C591.095 122.431 598.537 143.904 598.537 172.836C598.537 192.652 595.033 208.832 588.027 221.376C581.019 233.921 570.489 243.171 556.439 249.122C542.385 255.074 524.661 258.05 503.264 258.05C488.872 258.05 474.369 257.183 459.754 255.451Z" fill="white"/>
<path d="M667.646 235.107C671.752 233.45 675.425 230.812 678.666 227.196V200.976L658.435 202.784C650.674 203.538 645.004 205.403 641.427 208.378C637.847 211.356 636.059 215.518 636.059 220.867C636.059 226.292 637.658 230.436 640.861 233.299C644.063 236.163 648.753 237.593 654.931 237.593C659.301 237.593 663.539 236.765 667.646 235.107ZM684.542 135.935C692.301 139.063 698.085 144.205 701.89 151.362C705.693 158.521 707.597 168.24 707.597 180.52V256.467H683.073L681.039 243.696H679.456C675.764 248.595 670.998 252.305 665.16 254.828C659.32 257.352 652.859 258.614 645.777 258.614C637.715 258.614 630.746 257.182 624.87 254.32C618.993 251.457 614.49 247.408 611.364 242.17C608.236 236.935 606.674 230.775 606.674 223.692C606.674 212.24 610.591 203.388 618.427 197.133C626.263 190.88 638.657 187.075 655.609 185.719L678.666 183.571V178.712C678.666 172.459 677.665 167.543 675.67 163.963C673.673 160.385 670.545 157.843 666.29 156.335C662.032 154.828 656.325 154.074 649.168 154.074C644.119 154.074 638.657 154.509 632.78 155.374C626.904 156.241 621.253 157.541 615.828 159.273V136.557C621.403 134.825 627.639 133.505 634.532 132.601C641.427 131.697 647.961 131.245 654.14 131.245C666.646 131.245 676.781 132.81 684.542 135.935Z" fill="white"/>
<path d="M803.093 232.508V256.241C795.934 257.898 788.814 258.727 781.732 258.727C752.499 258.727 737.882 243.998 737.882 214.539V156.787H716.635V133.167H737.882L743.082 89.2038H767.492V133.167H801.962V156.787H767.492V209.792C767.492 215.82 768.264 220.604 769.81 224.145C771.353 227.687 773.708 230.23 776.873 231.774C780.037 233.318 784.219 234.09 789.418 234.09C793.034 234.09 797.592 233.564 803.093 232.508Z" fill="white"/>
<path d="M871.296 235.107C875.402 233.45 879.075 230.812 882.316 227.196V200.976L862.086 202.784C854.325 203.538 848.655 205.403 845.077 208.378C841.497 211.356 839.709 215.518 839.709 220.867C839.709 226.292 841.308 230.436 844.512 233.299C847.713 236.163 852.404 237.593 858.582 237.593C862.951 237.593 867.189 236.765 871.296 235.107ZM888.192 135.935C895.952 139.063 901.735 144.205 905.541 151.362C909.344 158.521 911.247 168.24 911.247 180.52V256.467H886.723L884.689 243.696H883.107C879.414 248.595 874.648 252.305 868.81 254.828C862.97 257.352 856.509 258.614 849.428 258.614C841.365 258.614 834.397 257.182 828.52 254.32C822.643 251.457 818.14 247.408 815.014 242.17C811.887 236.935 810.324 230.775 810.324 223.692C810.324 212.24 814.241 203.388 822.078 197.133C829.914 190.88 842.308 187.075 859.26 185.719L882.316 183.571V178.712C882.316 172.459 881.316 167.543 879.321 163.963C877.323 160.385 874.196 157.843 869.94 156.335C865.682 154.828 859.975 154.074 852.818 154.074C847.769 154.074 842.308 154.509 836.431 155.374C830.554 156.241 824.904 157.541 819.479 159.273V136.557C825.054 134.825 831.289 133.505 838.182 132.601C845.077 131.697 851.612 131.245 857.791 131.245C870.297 131.245 880.431 132.81 888.192 135.935Z" fill="white"/>
<path d="M960.633 158.709C956.488 164.134 954.304 173.214 954.078 185.946H1002.79C1002.56 173.214 1000.47 164.134 996.515 158.709C992.56 153.284 986.663 150.572 978.828 150.572C970.841 150.572 964.776 153.284 960.633 158.709ZM1030.48 203.689H954.191C954.567 211.676 956.073 218.025 958.712 222.733C961.347 227.442 965.417 230.852 970.918 232.961C976.416 235.071 983.762 236.125 992.955 236.125C1002 236.125 1012.32 234.695 1023.92 231.83V254.32C1012.09 257.259 1000.41 258.728 988.887 258.728C974.195 258.728 962.119 256.505 952.665 252.06C943.209 247.616 936.145 240.702 931.474 231.322C926.802 221.941 924.468 209.755 924.468 194.761C924.468 180.973 926.615 169.332 930.91 159.839C935.204 150.346 941.42 143.208 949.557 138.423C957.694 133.639 967.527 131.246 979.055 131.246C995.855 131.246 1008.63 136.653 1017.37 147.464C1026.11 158.277 1030.48 174.344 1030.48 195.665V203.689Z" fill="white"/>
<path d="M1113.66 231.434C1117.87 229.589 1121.38 226.857 1124.17 223.24V155.77C1119.12 154.639 1113.62 154.074 1107.67 154.074C1095.69 154.074 1086.78 157.295 1080.94 163.737C1075.1 170.179 1072.18 180.596 1072.18 194.986C1072.18 209.302 1074.63 219.417 1079.52 225.331C1084.42 231.247 1091.39 234.203 1100.43 234.203C1105.03 234.203 1109.44 233.281 1113.66 231.434ZM1066.81 252.285C1059.31 248.067 1053.36 241.379 1048.95 232.225C1044.55 223.071 1042.34 211.45 1042.34 197.359C1042.34 175.661 1047.9 159.199 1059.01 147.972C1070.12 136.746 1086.34 131.132 1107.67 131.132C1112.71 131.132 1118.21 131.547 1124.17 132.376V73.8333H1153.78V256.467H1128.8L1126.99 243.47H1125.41C1121.72 248.143 1117.05 251.833 1111.4 254.546C1105.74 257.258 1099.38 258.614 1092.3 258.614C1082.8 258.614 1074.31 256.504 1066.81 252.285Z" fill="white"/>
<path d="M1246.5 226.631C1251.14 220.454 1253.45 209.98 1253.45 195.213C1253.45 180.22 1251.14 169.615 1246.5 163.399C1241.87 157.183 1234.99 154.075 1225.88 154.075C1216.76 154.075 1209.89 157.165 1205.25 163.342C1200.62 169.521 1198.3 179.994 1198.3 194.761C1198.3 204.932 1199.37 213.032 1201.52 219.059C1203.67 225.087 1206.76 229.4 1210.79 231.999C1214.82 234.599 1219.85 235.898 1225.88 235.898C1234.99 235.898 1241.87 232.81 1246.5 226.631ZM1183.67 242.792C1173.53 232.169 1168.47 216.272 1168.47 195.1C1168.47 173.778 1173.46 157.804 1183.44 147.181C1193.42 136.557 1207.57 131.246 1225.88 131.246C1244.19 131.246 1258.33 136.557 1268.31 147.181C1278.3 157.804 1283.29 173.739 1283.29 194.986C1283.29 209.152 1280.97 220.98 1276.34 230.474C1271.71 239.967 1265.09 247.05 1256.5 251.721C1247.92 256.393 1237.71 258.727 1225.88 258.727C1207.87 258.727 1193.8 253.416 1183.67 242.792Z" fill="white"/>
</svg>
